<svg width="70" height="70" viewBox="0 0 70 70" fill="none" xmlns="http://www.w3.org/2000/svg">
<rect width="70" height="70" fill="#763B93"/>
<path d="M35.0234 15C24.0114 15 15.047 23.9567 15.043 34.9688C15.041 38.4887 15.9629 41.9251 17.7109 44.9531L15 55L25.4648 52.5273C28.3828 54.1193 31.6677 54.955 35.0117 54.957H35.0195C46.0295 54.957 54.9901 45.9983 54.9961 34.9883C55.0001 29.6503 52.9243 24.6315 49.1523 20.8555C45.3803 17.0815 40.3674 15.002 35.0234 15ZM35.0195 19C39.2915 19.002 43.3062 20.6676 46.3242 23.6836C49.3422 26.7036 51.0001 30.7164 50.9961 34.9844C50.9921 43.7924 43.8276 50.957 35.0156 50.957C32.3496 50.955 29.7088 50.2856 27.3828 49.0156L26.0352 48.2812L24.5469 48.6328L20.6094 49.5625L21.5703 45.9922L22.0039 44.3906L21.1758 42.9531C19.7798 40.5371 19.041 37.7747 19.043 34.9688C19.047 26.1648 26.2135 19 35.0195 19ZM27.9531 25.75C27.6191 25.75 27.0791 25.875 26.6211 26.375C26.1631 26.873 24.8711 28.0792 24.8711 30.5352C24.8711 32.9912 26.6602 35.3652 26.9102 35.6992C27.1582 36.0312 30.3635 41.2305 35.4375 43.2305C39.6535 44.8925 40.5098 44.5645 41.4258 44.4805C42.3418 44.3985 44.3809 43.2754 44.7969 42.1094C45.2129 40.9434 45.2138 39.9404 45.0898 39.7344C44.9658 39.5264 44.6328 39.4023 44.1328 39.1523C43.6348 38.9023 41.1807 37.6972 40.7227 37.5312C40.2647 37.3653 39.9297 37.2812 39.5977 37.7812C39.2657 38.2812 38.3115 39.4024 38.0195 39.7344C37.7275 40.0684 37.4375 40.1133 36.9375 39.8633C36.4375 39.6113 34.8299 39.0828 32.9219 37.3828C31.4379 36.0608 30.4365 34.4297 30.1445 33.9297C29.8545 33.4317 30.1172 33.1582 30.3672 32.9102C30.5912 32.6862 30.8633 32.3272 31.1133 32.0352C31.3613 31.7432 31.4473 31.5351 31.6133 31.2031C31.7793 30.8711 31.6943 30.5781 31.5703 30.3281C31.4463 30.0781 30.4753 27.613 30.0312 26.625C29.6572 25.795 29.2623 25.7757 28.9062 25.7617C28.6163 25.7497 28.2851 25.75 27.9531 25.75Z" fill="white"/>
</svg>
